<svg width="16" height="16" viewBox="0 0 16 16" fill="none" xmlns="http://www.w3.org/2000/svg">
<rect width="16" height="16" fill="white" fill-opacity="0.01"/>
<mask id="mask0" mask-type="alpha" maskUnits="userSpaceOnUse" x="1" y="0" width="14" height="16">
<path fill-rule="evenodd" clip-rule="evenodd" d="M6.00016 0.666668H10.0002C10.7365 0.666668 11.3335 1.26362 11.3335 2V2.66667H13.3335C14.0699 2.66667 14.6668 3.26362 14.6668 4V5.33333C14.6668 6.06971 14.0699 6.66667 13.3335 6.66667H13.2801L12.6668 14C12.6668 14.7364 12.0699 15.3333 11.3335 15.3333H4.66683C3.93045 15.3333 3.33349 14.7364 3.3358 14.0554L2.72007 6.66667H2.66683C1.93045 6.66667 1.3335 6.06971 1.3335 5.33333V4C1.3335 3.26362 1.93045 2.66667 2.66683 2.66667H4.66683V2C4.66683 1.26362 5.26378 0.666668 6.00016 0.666668ZM2.66683 4L4.66683 4H11.3335L13.3335 4V5.33333H2.66683V4ZM4.05783 6.66667H11.9423L11.3358 13.9446L11.3335 14H4.66684L4.05783 6.66667ZM10.0002 2V2.66667H6.00016V2H10.0002Z" fill="white"/>
</mask>
<g mask="url(#mask0)">
<rect width="16" height="16" fill="#4F4F4F"/>
</g>
</svg>
