<svg width="16" height="16" viewBox="0 0 16 16" fill="none" xmlns="http://www.w3.org/2000/svg">
<rect width="16" height="16" fill="white" fill-opacity="0.01"/>
<mask id="mask0" mask-type="alpha" maskUnits="userSpaceOnUse" x="1" y="1" width="14" height="14">
<path fill-rule="evenodd" clip-rule="evenodd" d="M14.6668 13.3333V8.66667H13.3335V13.3333H2.66683V2.66667H7.3335V1.33333H2.66683C1.93045 1.33333 1.3335 1.93029 1.3335 2.66667V13.3333C1.3335 14.0697 1.93045 14.6667 2.66683 14.6667H13.3335C14.0699 14.6667 14.6668 14.0697 14.6668 13.3333ZM12.7856 1.81561C12.48 1.50761 12.0616 1.33333 11.6251 1.33333C11.1891 1.33333 10.7711 1.50722 10.4638 1.81642L4.88449 7.39561C4.38594 7.83489 4.05912 8.48856 4.00233 9.19153L4.00016 11.3349V12.0016H6.75656C7.51276 11.9497 8.17285 11.6197 8.6385 11.0825L14.1862 5.53722C14.494 5.22944 14.6669 4.81199 14.6669 4.37672C14.6669 3.94144 14.494 3.524 14.1862 3.21621L12.7856 1.81561ZM6.70948 10.6699C7.06563 10.6447 7.39715 10.4789 7.66336 10.1744L11.7046 6.13315L9.86843 4.29685L5.79756 8.36639C5.52746 8.60528 5.36037 8.93949 5.3335 9.24522V10.6686L6.70948 10.6699ZM10.8114 3.35419L12.6474 5.19034L13.2434 4.59441C13.3011 4.53668 13.3335 4.45837 13.3335 4.37672C13.3335 4.29507 13.3011 4.21676 13.2434 4.15902L11.8409 2.75657C11.7838 2.69903 11.7061 2.66667 11.6251 2.66667C11.544 2.66667 11.4663 2.69903 11.4092 2.75657L10.8114 3.35419Z" fill="white"/>
</mask>
<g mask="url(#mask0)">
<rect width="16" height="16" fill="#4F4F4F"/>
</g>
</svg>
